<svg xmlns="http://www.w3.org/2000/svg" width="38" height="38" viewBox="0 0 38 38">
  <g id="global" transform="translate(-992.512 -8254.926)">
    <path id="web_development_icon" data-name="web development icon" d="M1021.049,8257.448a19.041,19.041,0,0,1,6.9,6.828,18.377,18.377,0,0,1,2.56,9.575,18.568,18.568,0,0,1-2.56,9.61,19.238,19.238,0,0,1-6.9,6.9,18.992,18.992,0,0,1-19.111-.037,19.544,19.544,0,0,1-6.865-6.978,18.49,18.49,0,0,1-2.561-9.5,18.3,18.3,0,0,1,2.561-9.464,19.225,19.225,0,0,1,6.9-6.9,18.421,18.421,0,0,1,9.537-2.561A18.647,18.647,0,0,1,1021.049,8257.448Zm-.111,6.828c-.248,0-.371.025-.371.074h.223l.074.074.074.3a.562.562,0,0,0,.148.261,3.076,3.076,0,0,0,.223.259c.4,0,.494.149.3.445a.237.237,0,0,0,.149-.223l.148-.148c.148-.1.234-.062.26.112s.16.31.408.407a.861.861,0,0,1,.445.3v-.148c.1-.1.16-.122.185-.074a.118.118,0,0,0,.111.074,2.218,2.218,0,0,0,.371-.074h.148a1.836,1.836,0,0,1,.52-.742c.2-.2.3-.32.3-.372l.074-.073a1.774,1.774,0,0,0,.223-1.262,1.424,1.424,0,0,0-.26-.334,1.036,1.036,0,0,0-.445-.26.6.6,0,0,0-.557.186q-.3.261-.928-.26t-.631-.741q.371,1.633.148,1.855a2.861,2.861,0,0,1-1.336.37ZM997.93,8274.37a2.524,2.524,0,0,0,.3-.669c.149-.394,0-.444-.445-.147l-.668.224a.717.717,0,0,0,.111.481,1,1,0,0,0,.483.186h.148Zm1.633-12.022,1.41.444a.6.6,0,0,0,.148.445,3.489,3.489,0,0,0,.557.408,6.632,6.632,0,0,1,.631.445c.149.125.247.162.3.111h.3l.148-.074c.247-.1.346-.2.3-.3a2.361,2.361,0,0,0,.965.593.769.769,0,0,0,.3.148l.3.222a.214.214,0,0,0,.223.038.827.827,0,0,0,.3-.149.479.479,0,0,0,.148-.407l.074-.37q.148.148-.037.481c-.124.223-.148.384-.074.483a.316.316,0,0,0,.334.111,2.02,2.02,0,0,0,.668-.335,2.165,2.165,0,0,0,.594-.52l.3-.594c0,.05.086.1.26.149s.26.1.26.148l-.074-.892q-.075-.668-.148-1.039a1.23,1.23,0,0,1,.3-1.187,2.536,2.536,0,0,0,.742-1.039q.073-.595-.3-.668a1.208,1.208,0,0,1,.186-.558,1.211,1.211,0,0,0,.186-.481,2.06,2.06,0,0,0-.074-.445,16.374,16.374,0,0,0-9.2,4.824Zm3.043,8.386v-.148a.271.271,0,0,1,.408-.074.9.9,0,0,0,.408.148l.148-.148-.074-.223c0-.1-.026-.16-.074-.186a1.506,1.506,0,0,0-.445-.037h-.445c-.05,0-.1.051-.148.148s-.1.148-.148.148-.05-.074,0-.223v-.3a.3.3,0,0,0-.074-.222v-.148l-.148-.075-.074.148-.223-.073-.074.073a.725.725,0,0,0-.148.52h-.148l-.223-.074v.074h-.148v.074c.049.05.049.074,0,.074l-.371.074-.149.521.371.371a.3.3,0,0,0,.148.3.6.6,0,0,0,.186.074c.024,0,.037.025.037.074l.074.074a2.464,2.464,0,0,0,.965-.445v-.3l.074-.223q.223-.3.3,0Zm20.707,14.919a13.778,13.778,0,0,0,2.375-3.118.68.68,0,0,0-.3-.186c-.1-.024-.148-.111-.148-.26l-.074-.3c-.05-.049-.148-.023-.3.074-.148-.1-.174-.246-.074-.444a5.329,5.329,0,0,1-1.113-.743,1.8,1.8,0,0,1-.594-.557c-.05-.122.049-.259.3-.407,0,.049.074.136.223.259s.234.148.26.074a1.046,1.046,0,0,0-.037-.446c-.05-.222-.148-.333-.3-.333q.223,0,.3-.444a5.732,5.732,0,0,0,.074-.93v-.63h-.074a1.654,1.654,0,0,0-.148-.891c-.148-.395-.322-.568-.52-.52q.3-.073-.519-1.039a2.291,2.291,0,0,0-.223-.3l-.3-.149q-.15-.073-.223.742v.148a1.573,1.573,0,0,1-.742.965,7.732,7.732,0,0,1-1.076.371c-.371.1-.569.148-.594.148s-.013-.024.037-.073q1.186-.817.223-2.079-.445-.519,1.559-.741c.1,0,.136-.013.111-.037a2.619,2.619,0,0,1-.186-.483q-.222-.592-.371-.668a1.156,1.156,0,0,0-.3-.52q-.3-.371-.223-.594l.148-.074a1,1,0,0,0-.408-.334.974.974,0,0,1-.408-.333l-.148-.595q-.075-.073-.223,0a3.394,3.394,0,0,0,.668,1.559l.445.742a1.506,1.506,0,0,1,.111.445.7.7,0,0,0,.111.371.888.888,0,0,1-.408-.148c-.174-.1-.235-.148-.186-.148a1.213,1.213,0,0,0-.371-.966l-.148-.073a10.731,10.731,0,0,1-1-1.3c-.124-.224-.111-.308.037-.26a1.821,1.821,0,0,1-.742-.52,1.345,1.345,0,0,1-.445-.965q-.075-1.039-.668-1.225a6.242,6.242,0,0,1-1.558-.854,1.232,1.232,0,0,0-1.113-.074h-.223a.784.784,0,0,1-.742-.37,1.658,1.658,0,0,0-.594-.521,1.635,1.635,0,0,0-1.41-.3c.049-.049.049-.123,0-.222a4.245,4.245,0,0,0-1.484-1.782l-.223.224a.553.553,0,0,0-.185-.521.509.509,0,0,0-.519-.223c-.174.051-.26.323-.26.817q.741-.372,1.262.519l.223.521a.514.514,0,0,1-.037.222.12.12,0,0,1-.111.074c-.148,0-.235.038-.26.111a.556.556,0,0,0,.037.334l.148.3a.92.92,0,0,0,.223.521l.3.37a.429.429,0,0,1,.445-.186.6.6,0,0,1,.445.26l.074-.3h.371a1.034,1.034,0,0,0-.074.446,1.982,1.982,0,0,1-.223.891q-.445.743-.223.889a.954.954,0,0,0,.631.112.626.626,0,0,0,.557-.482c.049-.444.185-.706.408-.779a1.815,1.815,0,0,1,.742-.074,1.881,1.881,0,0,1,.557.111,2.625,2.625,0,0,1,.742,1.708h.074a4.566,4.566,0,0,1-.074.667,2.878,2.878,0,0,0,0,1.336l-.074.148-.371.371a.165.165,0,0,1-.186.037c-.074-.024-.137.036-.186.185l.148.15a1.57,1.57,0,0,0-.742.037c-.347.073-.569.062-.668-.037-.248-.2-.445-.174-.594.074l.074.222a.485.485,0,0,1,0,.371q-.075-.741-.742-.222a2.4,2.4,0,0,0-.445-.149,2.149,2.149,0,0,1-.445-.148l-.3-.222c0-.05-.05-.05-.148,0l-.223.148a3.226,3.226,0,0,1-.3-.595q-.3-1.039-.482-1.113a.9.9,0,0,0-.3-.074q-.111,0-.111.223l.074,1.335v.225q.445.073.52.333a.65.65,0,0,1-.037.482,1.336,1.336,0,0,1-.408.444l-.594.3a.8.8,0,0,0-.3.147q-.52.52-.371.965a.29.29,0,0,0-.3.223l.445.224c-.148.1-.174.247-.074.444a.791.791,0,0,0-.148.3c-.05.149-.124.224-.223.224-.148-.2-.31-.224-.482-.074s-.211.3-.111.446a1.3,1.3,0,0,1-.557.26c-.272.074-.408.161-.408.259-.148-.049-.223-.023-.223.074l-.074.3a.61.61,0,0,1-.074.333.63.63,0,0,1-.371.188l-.3.147-.445.3-.074.074a.792.792,0,0,0-.7.222c-.223.2-.185.4.111.595-.05.1-.013.174.111.223s.26.1.408.147h-.3a.437.437,0,0,0-.3.074c-.248.148-.148.261.3.335a1.667,1.667,0,0,0,1.41-.631l.148-.148a2.721,2.721,0,0,0-.148.37,1.43,1.43,0,0,1-.742.668,8.071,8.071,0,0,1-1.3.334,1.336,1.336,0,0,1-1.373-.334c.049.051-.025.175-.223.37a2.592,2.592,0,0,1-.371.336,1.63,1.63,0,0,1-.371.074c-.2.024-.322.086-.371.185l-.074.594a.319.319,0,0,1,.408.148,2.588,2.588,0,0,1,.185.521l.148-.149q0,.3.445.149c.1-.05.149-.05.149,0a1.286,1.286,0,0,1,.445.185.715.715,0,0,1,.223.408l.074.371a.94.94,0,0,0,.26.3.924.924,0,0,1,.26.3v.075c.1.246.2.383.3.407s.271-.111.519-.407l.074-.075q.223.073.445-.223a.621.621,0,0,0,.223-.073h.223c-.248.047-.223.148.074.3a1.243,1.243,0,0,0,.371.075.206.206,0,0,0-.149.3.783.783,0,0,0,.149.3h-.074q.148.3,1.15.668a2.651,2.651,0,0,0,1.521.224.434.434,0,0,0,.148-.3,1.241,1.241,0,0,0-.074-.372l-.074-.223a.375.375,0,0,1,.111-.408.517.517,0,0,0,.185-.334c0-.1-.124-.222-.371-.371s-.334-.309-.26-.482a1.217,1.217,0,0,1,.408-.481l.445-.3a.48.48,0,0,0,.037-.482,1.213,1.213,0,0,0-.222-.371.3.3,0,0,1-.111-.186.066.066,0,0,1,.074-.074l.371-.3a.564.564,0,0,1,.557.185,1.27,1.27,0,0,1,.334.705,1.064,1.064,0,0,0,.445.743q.593.148.742-.074.148.371,1.039.741a2.956,2.956,0,0,0,1.484.073q-.15.075.037.41c.123.222.26.308.408.259l-.074.816a1.129,1.129,0,0,1-.3.594l-.445.594c-.05.1-.05.148,0,.148a1.272,1.272,0,0,0-1.262.3.834.834,0,0,0-.3.446l-.3.444a1.242,1.242,0,0,1-.371.074.872.872,0,0,1-.371-.111.877.877,0,0,0-.371-.111q-.372-.075-.408.261a.467.467,0,0,0,.185.481q-.3,0-.074.446c.1.148.173.222.223.222a.67.67,0,0,0,.668-.073q.223-.151,0-.223a4.844,4.844,0,0,1,.631-.743c.123-.1.26-.05.408.148l.148.371c.1.2.2.3.3.3s.223-.125.371-.372c-.05.148.037.284.26.409a1.331,1.331,0,0,0,.631.185q-.445.3.223.742a1.674,1.674,0,0,0,.519.111.635.635,0,0,0,.52-.111.429.429,0,0,0,.148-.3.238.238,0,0,0-.148-.223l-.3-.148-.445-.147q-.372-.3-.223-.372l.52-.223c.049,0,.1-.037.148-.111a.469.469,0,0,0,0-.37c-.05-.174-.026-.287.074-.335q.073.148.223.445l.148.445v-.074c-.05-.1.074-.148.371-.148l.519.074h.149a3.668,3.668,0,0,1,.854-.037.442.442,0,0,1,.3.223.494.494,0,0,1-.037.483.066.066,0,0,1-.074.073l.519.445.668-.223a15.3,15.3,0,0,0,2-.742h-.148a2.214,2.214,0,0,0-.371-.074l-.074.074a2.341,2.341,0,0,1-.52.224q-.891.369-1.113.148l-.074.147a4.293,4.293,0,0,1-.52-.594,1.42,1.42,0,0,0,.7-.037q.557-.111.557-.26a3.113,3.113,0,0,1-.074-.52,2.518,2.518,0,0,0,1.039.742h.816a13.452,13.452,0,0,0,3.488-2.671Z" fill="#ed2b23"/>
  </g>
</svg>
