<svg xmlns="http://www.w3.org/2000/svg" width="37.629" height="37.851" viewBox="0 0 37.629 37.851">
  <g id="icon" transform="translate(-392.66 -8254.999)">
    <path id="design_icon" data-name="design icon" d="M430.289,8255v8.388h-7.719v-1.856a24.656,24.656,0,0,0-7.385,2.042,27.342,27.342,0,0,0-6.42,4.044v3.712h-3.637a25.752,25.752,0,0,0-5.863,13.878h2.078v7.644H392.66v-7.644h2.078a25.677,25.677,0,0,1,1.633-8.015v-6.978h-.816c-.248,0-.371-.1-.371-.3v-2.523c0-.2.123-.3.371-.3H398c.247,0,.371.1.371.3v2.523c0,.2-.124.3-.371.3h-.816v5.121a31.484,31.484,0,0,1,4.75-7.421V8264.5h3.414a33.508,33.508,0,0,1,7.5-4.973h-4.824v.816c0,.248-.1.372-.3.372H405.2a.328.328,0,0,1-.371-.372v-2.448a.327.327,0,0,1,.371-.371h2.523c.2,0,.3.123.3.371v.889h6.605a25.9,25.9,0,0,1,7.941-1.78v-2Zm-23.156,3.488H405.8v1.336h1.336Zm-9.648,10.836v-1.335h-1.336v1.335Z" fill="#ed2b23"/>
  </g>
</svg>
