<svg xmlns="http://www.w3.org/2000/svg" width="22.563" height="38" viewBox="0 0 22.563 38">
  <g id="Mobile" transform="translate(-400.512 -8475.925)">
    <path id="mobile_icon" data-name="mobile icon" d="M422.407,8476.593a2.138,2.138,0,0,1,.668,1.56V8511.7a2.135,2.135,0,0,1-.668,1.559,2.219,2.219,0,0,1-1.633.668H402.738a2.283,2.283,0,0,1-2.226-2.227v-33.546a2.138,2.138,0,0,1,.668-1.56,2.22,2.22,0,0,1,1.633-.668h18.035A2.136,2.136,0,0,1,422.407,8476.593Zm-4.23-.445H405.262l.594,1.484a1.786,1.786,0,0,0,.779.928,2.466,2.466,0,0,0,1.3.334h7.57a2.469,2.469,0,0,0,1.3-.334,1.786,1.786,0,0,0,.779-.928Z" fill="#ed2b23"/>
  </g>
</svg>
