<svg xmlns="http://www.w3.org/2000/svg" width="38" height="37.986" viewBox="0 0 38 37.986">
  <g id="pencile" transform="translate(-993.512 -8474.938)">
    <path id="content_writing_icon" data-name="content writing icon" d="M1001.676,8508.843a7.06,7.06,0,0,1-3.266-.742,11.974,11.974,0,0,1-2.783-2,4.12,4.12,0,0,1-1.373-2.227L1014,8475q.148-.223,1.373.371a20,20,0,0,1,2.746,1.671,29.348,29.348,0,0,1,2.523,1.966q1,.891.854,1.114Zm15.957-31.135c.445.323.692.445.742.371s-.148-.271-.594-.594-.693-.433-.742-.334Q1016.965,8477.226,1017.633,8477.708Zm13.879,29.873h-24.641l-3.637,5.344h28.278Zm-37.555-2.227a9.759,9.759,0,0,0,2.6,2.821,12.93,12.93,0,0,0,4.156,1.632l.445.075-7.645,3.042.148-8.016Z" fill="#ed2b23"/>
  </g>
</svg>
